<svg xmlns="http://www.w3.org/2000/svg" viewBox="0 0 512 512" role="img" aria-labelledby="title desc">
  <title id="title">Logo Tecno Mármol</title>
  <desc id="desc">Símbolo naranja integrado con una letra G oscura.</desc>
  <defs>
    <linearGradient id="orange" x1="112" y1="132" x2="409" y2="405" gradientUnits="userSpaceOnUse">
      <stop offset="0" stop-color="#ff7a18"/>
      <stop offset="0.52" stop-color="#ff620b"/>
      <stop offset="1" stop-color="#ef5200"/>
    </linearGradient>
    <linearGradient id="dark" x1="109" y1="92" x2="412" y2="421" gradientUnits="userSpaceOnUse">
      <stop offset="0" stop-color="#333331"/>
      <stop offset="0.52" stop-color="#151515"/>
      <stop offset="1" stop-color="#2a2a28"/>
    </linearGradient>
    <filter id="softShadow" x="-18%" y="-18%" width="136%" height="136%">
      <feDropShadow dx="0" dy="12" stdDeviation="12" flood-color="#000000" flood-opacity="0.35"/>
    </filter>
  </defs>

  <g filter="url(#softShadow)">
    <path
      d="M363.5 91.5C331.4 74.8 294.8 65.4 256 65.4c-120.5 0-218.2 97.7-218.2 218.2S135.5 501.8 256 501.8c93.4 0 173.1-58.7 204.2-141.2"
      fill="none"
      stroke="url(#dark)"
      stroke-width="26"
      stroke-linecap="butt"
    />
    <path d="M260 294h192v34H260z" fill="url(#dark)"/>

    <path
      fill="url(#orange)"
      fill-rule="evenodd"
      d="M253.9 123.4c-79.9 0-144.8 63.4-144.8 142.9 0 33.2 11.3 64 30.3 88.5 13.9 43 49.2 73.6 94 84.5-22.2-15.5-36.3-35.7-43.6-57.3 24 18.2 54.2 29 86.8 29 67.3 0 125.5-45.8 142.1-109.9H290.3c-7.6 17.3-24.8 29.4-45 29.4-27.1 0-49.1-22-49.1-49.1 0-27.1 22-49.1 49.1-49.1 19.8 0 36.9 11.8 44.6 28.8h129.3c-2.6-35.8-18.1-68.2-41.9-92.6-17.3-17.7-38.9-31.2-63.2-38.7-18.5-4.2-38.6-6.4-60.2-6.4Zm-7.9 74.8a83.2 83.2 0 1 1 0 166.4 83.2 83.2 0 0 1 0-166.4Zm0 36.9a46.3 46.3 0 1 0 0 92.6 46.3 46.3 0 0 0 0-92.6Z"
    />
    <path
      d="M376.8 178.5c.8-35.5 8.3-66 32.1-79.4 18.8-10.6 40.5-3 55.4 12.2 19.6 20.1 19.3 50.4 1.5 74.5 24.2-13.6 48.2-11.7 65.1 3.4l-45.4 47.1 47.1 42.3c-27.8 8.1-51.6 3.7-69.6-13.8 5.7 33.1-3.5 59.9-26.4 73.7-25.8 15.5-50.5-4.2-58.6-37.6-6.3-25.8-6.1-74.1-1.2-122.4Z"
      fill="url(#orange)"
    />
    <path
      d="M154.3 341.8c13.6 54.2 50.1 90.4 111.1 107.2-72.1 8.3-121-18.1-147.9-78.3 13.3 2.1 25.6-7.8 36.8-28.9Z"
      fill="url(#orange)"
    />
  </g>
</svg>
